<svg width="27" height="42" viewBox="0 0 27 42" fill="none" xmlns="http://www.w3.org/2000/svg">
<path d="M6 42C2.6865 42 0 39.3135 0 36C0 32.6865 2.6865 30 6 30H10.2855C11.232 30 12 30.768 12 31.7145V36C12 39.3135 9.3135 42 6 42ZM21 12H16.7145C15.768 12 15 11.232 15 10.2855V1.7145C15 0.768 15.768 0 16.7145 0H21C24.3135 0 27 2.6865 27 6C27 9.3135 24.3135 12 21 12ZM6 0H10.2855C11.232 0 12 0.768 12 1.7145V10.2855C12 11.232 11.232 12 10.2855 12H6C2.6865 12 0 9.3135 0 6C0 2.6865 2.6865 0 6 0ZM6 15H10.2855C11.232 15 12 15.768 12 16.7145V25.2855C12 26.232 11.232 27 10.2855 27H6C2.6865 27 0 24.3135 0 21C0 17.6865 2.6865 15 6 15ZM21 15C19.4087 15 17.8826 15.6321 16.7574 16.7574C15.6321 17.8826 15 19.4087 15 21C15 22.5913 15.6321 24.1174 16.7574 25.2426C17.8826 26.3679 19.4087 27 21 27C22.5913 27 24.1174 26.3679 25.2426 25.2426C26.3679 24.1174 27 22.5913 27 21C27 19.4087 26.3679 17.8826 25.2426 16.7574C24.1174 15.6321 22.5913 15 21 15Z" fill="#198B67"/>
</svg>
