<svg width="70" height="70" viewBox="0 0 70 70" fill="none" xmlns="http://www.w3.org/2000/svg">
<path d="M40.3899 35.1538C40.0682 35.1538 39.7602 35.2658 39.5081 35.4755C36.4418 37.9393 33.5443 37.9393 30.4781 35.4755C30.2261 35.2658 29.918 35.1538 29.5963 35.1538C24.9624 35.1538 21.1824 38.9339 21.1824 43.5821V51.4919C21.1824 52.276 21.8122 52.8921 22.5826 52.8921H47.4051C48.1749 52.8921 48.8053 52.276 48.8053 51.4919V43.5821C48.8046 38.9339 45.0246 35.1538 40.3907 35.1538H40.3899Z" fill="black"/>
<path d="M34.9995 34.3601C40.0099 34.3601 44.0954 30.2753 44.0954 25.2642C44.0954 20.2409 40.0105 16.156 34.9995 16.156C29.9762 16.156 25.8914 20.2409 25.8914 25.2642C25.8894 30.2753 29.9749 34.3601 34.9995 34.3601Z" fill="black"/>
<path d="M63.4016 27.941C60.7965 17.4143 52.5851 9.21575 42.0571 6.59812C41.7836 2.91441 38.7382 0 34.9992 0C31.2458 0 28.2012 2.91441 27.9262 6.59812C17.3995 9.21492 9.20104 17.4133 6.59675 27.9394C2.92024 28.2097 0 31.2564 0 35C0 38.7572 2.9204 41.804 6.59675 42.0743C9.20187 52.601 17.3989 60.7979 27.9262 63.4039C28.1965 67.0798 31.2426 70 35.0005 70C38.744 70 41.7902 67.0796 42.0604 63.4019C52.5871 60.7968 60.7973 52.5984 63.4032 42.0723C67.0856 41.7981 70 38.7547 70 35.0013C70 31.2616 67.0856 28.2181 63.4032 27.942L63.4016 27.941ZM41.7036 60.6049C40.7475 57.7965 38.1196 55.7625 34.9993 55.7625C31.8673 55.7625 29.2369 57.7978 28.2807 60.6068C19.0228 58.2016 11.7988 50.9776 9.39378 41.7198C12.2021 40.7637 14.2381 38.1332 14.2381 35.0012C14.2381 31.8822 12.2041 29.2529 9.39578 28.2968C11.812 19.0389 19.0236 11.8149 28.281 9.39649C29.2358 12.2009 31.8677 14.2388 35.001 14.2388C38.1233 14.2388 40.7538 12.2002 41.7073 9.39649C50.975 11.8141 58.1892 19.0367 60.6059 28.2952C57.8015 29.2487 55.7636 31.8792 55.7636 35.0015C55.7636 38.1348 57.8022 40.7666 60.6059 41.7215C58.1883 50.9776 50.974 58.1898 41.7056 60.6052L41.7036 60.6049Z" fill="black"/>
</svg>
