<svg width="528" height="485" viewBox="0 0 528 485" fill="none" xmlns="http://www.w3.org/2000/svg">
<path d="M75.625 45.5H100.75V67.875H75.625V45.5ZM125.875 67.875H151V45.5H125.875V67.875ZM502.75 0.75V179.75H477.625V112.625H25.375V179.75H226.375V202.125H25.375V269.25H226.375V291.625H0.25V0.75H502.75ZM477.625 23.125H25.375V90.25H477.625V23.125ZM75.625 135V157.375H100.75V135H75.625ZM125.875 135V157.375H151V135H125.875ZM75.625 224.5V246.875H100.75V224.5H75.625ZM125.875 224.5V246.875H151V224.5H125.875ZM176.125 67.875H201.25V45.5H176.125V67.875ZM176.125 135V157.375H201.25V135H176.125ZM176.125 224.5V246.875H201.25V224.5H176.125ZM502.75 224.5H400.089L407.451 217.944L389.688 202.125L352 235.688L389.688 269.25L407.451 253.431L400.089 246.875H502.75V425.875H477.625V448.25H502.75C509.414 448.25 515.804 445.893 520.516 441.697C525.228 437.5 527.875 431.809 527.875 425.875V246.875C527.875 240.941 525.228 235.25 520.516 231.053C515.804 226.857 509.414 224.5 502.75 224.5ZM442.953 437.062L389.688 484.498L348.985 448.25H301.75C287.931 448.25 276.625 438.181 276.625 425.875V381.125H251.5V314H276.625V267.236C262.052 262.538 251.5 250.231 251.5 235.688C251.5 217.116 268.334 202.125 289.188 202.125C310.041 202.125 326.875 217.116 326.875 235.688C326.875 250.231 316.323 262.538 301.75 267.236V314H326.875V381.125H301.75V425.875H348.985L389.688 389.627L442.953 437.062ZM276.625 246.875H301.75V224.5H276.625V246.875ZM301.75 358.75V336.375H276.625V358.75H301.75ZM389.688 452.949L407.526 437.062L389.688 421.176L371.849 437.062L389.688 452.949Z" fill="#198B67"/>
</svg>
